<?xml version="1.0" encoding="utf-8"?>
<!-- Generator: Adobe Illustrator 18.1.1, SVG Export Plug-In . SVG Version: 6.00 Build 0)  -->
<svg version="1.1" id="Layer_1" xmlns="http://www.w3.org/2000/svg" xmlns:xlink="http://www.w3.org/1999/xlink" x="0px" y="0px"
	 viewBox="0 0 40 40" enable-background="new 0 0 40 40" xml:space="preserve">
<path fill="none" stroke="#F1F2F2" stroke-miterlimit="10" d="M27.1,23.1c1.2,1.2,1.2,3,0.1,4.1c-1.1,1.1-2.9,1-4.1-0.1l-2.8-2.8
	L17.6,27c-1.2,1.2-3,1.2-4.1,0.1c-1.1-1.1-1-2.9,0.1-4.1l2.8-2.8l-2.8-2.8c-1.2-1.2-1.2-3-0.1-4.1c1.1-1.1,2.9-1,4.1,0.1l2.8,2.8
	l2.8-2.8c1.2-1.2,3-1.2,4.1-0.1c1.1,1.1,1,2.9-0.1,4.1l-2.8,2.8L27.1,23.1z M20.4,2.5c-9.8,0-17.8,8-17.8,17.8S10.6,38,20.4,38
	s17.8-8,17.8-17.8S30.2,2.5,20.4,2.5z"/>
</svg>
